<mxfile host="app.diagrams.net" modified="2023-12-04T15:38:44.608Z" agent="Mozilla/5.0 (Windows NT 10.0; Win64; x64; rv:120.0) Gecko/20100101 Firefox/120.0" etag="vVLOAJP8AtVi5q6PEtYT" version="22.1.5" type="github">
  <diagram id="bBTnM0Bof4FImpnx4-uH" name="Page-1">
    <mxGraphModel dx="2074" dy="1106" grid="1" gridSize="10" guides="1" tooltips="1" connect="1" arrows="1" fold="1" page="1" pageScale="1" pageWidth="827" pageHeight="1169" math="0" shadow="0">
      <root>
        <mxCell id="0" />
        <mxCell id="1" parent="0" />
        <mxCell id="OU2u1vkTPK5hf4tIQWwU-1" value="&lt;strong data-renderer-mark=&quot;true&quot;&gt;bx-cron-intcus-rep-generico&lt;/strong&gt;" style="rounded=0;whiteSpace=wrap;html=1;fillColor=#ffe6cc;strokeColor=#d79b00;" parent="1" vertex="1">
          <mxGeometry x="100" y="400" width="120" height="60" as="geometry" />
        </mxCell>
        <mxCell id="OU2u1vkTPK5hf4tIQWwU-2" value="2- Injecto mensaje al topico kafka" style="endArrow=classic;html=1;rounded=0;exitX=1;exitY=0;exitDx=0;exitDy=0;entryX=-0.008;entryY=0.867;entryDx=0;entryDy=0;entryPerimeter=0;" parent="1" source="OU2u1vkTPK5hf4tIQWwU-1" target="OU2u1vkTPK5hf4tIQWwU-4" edge="1">
          <mxGeometry width="50" height="50" relative="1" as="geometry">
            <mxPoint x="230" y="380" as="sourcePoint" />
            <mxPoint x="280" y="330" as="targetPoint" />
          </mxGeometry>
        </mxCell>
        <mxCell id="OU2u1vkTPK5hf4tIQWwU-3" value="" style="shape=image;html=1;verticalAlign=top;verticalLabelPosition=bottom;labelBackgroundColor=#ffffff;imageAspect=0;aspect=fixed;image=https://cdn3.iconfinder.com/data/icons/UltimateGnome/128x128/status/gnome-fs-loading-icon.png;direction=south;" parent="1" vertex="1">
          <mxGeometry x="40" y="410" width="40" height="40" as="geometry" />
        </mxCell>
        <mxCell id="OU2u1vkTPK5hf4tIQWwU-10" value="" style="edgeStyle=orthogonalEdgeStyle;rounded=0;orthogonalLoop=1;jettySize=auto;html=1;" parent="1" source="OU2u1vkTPK5hf4tIQWwU-4" target="OU2u1vkTPK5hf4tIQWwU-5" edge="1">
          <mxGeometry relative="1" as="geometry" />
        </mxCell>
        <mxCell id="OU2u1vkTPK5hf4tIQWwU-4" value="topÃ­co" style="rounded=0;whiteSpace=wrap;html=1;fillColor=#fff2cc;strokeColor=#d6b656;" parent="1" vertex="1">
          <mxGeometry x="294" y="290" width="120" height="60" as="geometry" />
        </mxCell>
        <mxCell id="OU2u1vkTPK5hf4tIQWwU-5" value="" style="sketch=0;points=[[0,0,0],[0.25,0,0],[0.5,0,0],[0.75,0,0],[1,0,0],[0,1,0],[0.25,1,0],[0.5,1,0],[0.75,1,0],[1,1,0],[0,0.25,0],[0,0.5,0],[0,0.75,0],[1,0.25,0],[1,0.5,0],[1,0.75,0]];outlineConnect=0;fontColor=#232F3E;gradientColor=#945DF2;gradientDirection=north;fillColor=#5A30B5;strokeColor=#ffffff;dashed=0;verticalLabelPosition=bottom;verticalAlign=top;align=center;html=1;fontSize=12;fontStyle=0;aspect=fixed;shape=mxgraph.aws4.resourceIcon;resIcon=mxgraph.aws4.managed_streaming_for_kafka;" parent="1" vertex="1">
          <mxGeometry x="450" y="281" width="78" height="78" as="geometry" />
        </mxCell>
        <mxCell id="OU2u1vkTPK5hf4tIQWwU-9" value="MongoDB" style="sketch=0;points=[[0,0,0],[0.25,0,0],[0.5,0,0],[0.75,0,0],[1,0,0],[0,1,0],[0.25,1,0],[0.5,1,0],[0.75,1,0],[1,1,0],[0,0.25,0],[0,0.5,0],[0,0.75,0],[1,0.25,0],[1,0.5,0],[1,0.75,0]];outlineConnect=0;fontColor=#232F3E;gradientColor=#4D72F3;gradientDirection=north;fillColor=#3334B9;strokeColor=#ffffff;dashed=0;verticalLabelPosition=bottom;verticalAlign=top;align=center;html=1;fontSize=12;fontStyle=0;aspect=fixed;shape=mxgraph.aws4.resourceIcon;resIcon=mxgraph.aws4.documentdb_with_mongodb_compatibility;" parent="1" vertex="1">
          <mxGeometry x="610" y="400" width="78" height="78" as="geometry" />
        </mxCell>
        <mxCell id="OU2u1vkTPK5hf4tIQWwU-17" value="" style="endArrow=classic;startArrow=classic;html=1;rounded=0;entryX=0;entryY=0.25;entryDx=0;entryDy=0;entryPerimeter=0;exitX=1;exitY=0.25;exitDx=0;exitDy=0;" parent="1" source="OU2u1vkTPK5hf4tIQWwU-1" target="OU2u1vkTPK5hf4tIQWwU-9" edge="1">
          <mxGeometry width="50" height="50" relative="1" as="geometry">
            <mxPoint x="330" y="520" as="sourcePoint" />
            <mxPoint x="380" y="470" as="targetPoint" />
          </mxGeometry>
        </mxCell>
        <mxCell id="OU2u1vkTPK5hf4tIQWwU-18" value="&lt;div&gt;&lt;br&gt;&lt;/div&gt;&lt;div&gt;&lt;br&gt;&lt;/div&gt;&lt;div&gt;&amp;nbsp; 1- Consulta mensajes&amp;nbsp;&lt;span class=&quot;prismjs confluence-ssr-app-49loy0&quot; data-ds--code--code-block=&quot;&quot; data-code-lang=&quot;&quot;&gt;&lt;code style=&quot;&quot; class=&quot;language-&quot;&gt;resultadoProcess:false&lt;/code&gt;&lt;/span&gt; cada 30 minutos&lt;/div&gt;&lt;div&gt;&lt;br&gt;&lt;br&gt;&lt;br&gt;&lt;/div&gt;" style="edgeLabel;html=1;align=center;verticalAlign=middle;resizable=0;points=[];" parent="OU2u1vkTPK5hf4tIQWwU-17" vertex="1" connectable="0">
          <mxGeometry x="-0.3223" y="-2" relative="1" as="geometry">
            <mxPoint x="45" y="41" as="offset" />
          </mxGeometry>
        </mxCell>
      </root>
    </mxGraphModel>
  </diagram>
</mxfile>
